<?xml version="1.0" encoding="UTF-8" standalone="no"?> <!-- Created with Vectornator for iOS (http://vectornator.io/) --><!DOCTYPE svg PUBLIC "-//W3C//DTD SVG 1.1//EN" "http://www.w3.org/Graphics/SVG/1.1/DTD/svg11.dtd">
<svg height="100%" style="fill-rule:nonzero;clip-rule:evenodd;stroke-linecap:round;stroke-linejoin:round;" version="1.1" viewBox="0 0 200 200" width="100%" xml:space="preserve" xmlns="http://www.w3.org/2000/svg" xmlns:vectornator="http://vectornator.io" xmlns:xlink="http://www.w3.org/1999/xlink">
<metadata>
<vectornator:setting key="IsTimeLapseWatermarkDisabled" value="false"/>
<vectornator:setting key="UndoHistoryDisabled" value="true"/>
<vectornator:setting key="VNDimensionsVisible" value="true"/>
<vectornator:setting key="VNSnapToGuides" value="true"/>
<vectornator:setting key="WDCMYKEnabledKey" value="false"/>
<vectornator:setting key="WDDisplayWhiteBackground" value="false"/>
<vectornator:setting key="WDDynamicGuides" value="false"/>
<vectornator:setting key="WDGuidesVisible" value="true"/>
<vectornator:setting key="WDIsolateActiveLayer" value="false"/>
<vectornator:setting key="WDOutlineMode" value="false"/>
<vectornator:setting key="WDRulersVisible" value="true"/>
<vectornator:setting key="WDSnapToEdges" value="false"/>
<vectornator:setting key="WDSnapToGrid" value="false"/>
<vectornator:setting key="WDSnapToPoints" value="false"/>
<vectornator:setting key="WDUnits" value="Points"/>
</metadata>
<defs/>
<g id="Layer 1" vectornator:layerName="Layer 1">
<path d="M18.6085 171.901C10.128 169.612 25.815 106.218 31.0047 98.6901C36.1944 91.1623 40.8698 97.5866 43.9664 92.5761C47.0629 87.5657 43.6607 70.0766 52.0368 52.7129C60.413 35.3492 63.2254 23.6714 77.471 23.1212C91.7167 22.5709 101.551 48.7903 109.019 50.5119C116.488 52.2335 129.501 32.231 141.546 39.2621C153.59 46.2932 154.207 67.8472 157.198 78.6362C160.188 89.4252 158.861 129.167 160.377 132.929C161.893 136.69 173.644 145.768 178.23 155.428C182.815 165.088 187.955 169.728 178.719 171.569C169.482 173.41 27.089 174.19 18.6085 171.901Z" fill="#c29f83" opacity="1" stroke="#876c57" stroke-linecap="round" stroke-linejoin="round" stroke-width="5"/>
<path d="M50.3781 111.576L52.2299 88.6126L62.6003 110.958L67.4151 98.1188L79.02 112.069" fill="#8fd396" opacity="1" stroke="#55a55e" stroke-linecap="round" stroke-linejoin="round" stroke-width="5"/>
<path d="M124.163 76.3038L130.091 64.9881L136.377 76.8426L148.231 45.051L152.363 80.0757" fill="#8fd396" opacity="1" stroke="#55a55e" stroke-linecap="round" stroke-linejoin="round" stroke-width="5"/>
<path d="M83.5706 176.887L91.7403 176.887L104.485 150.623L115.487 176.887L124.746 161.698L132.589 176.887L141.85 176.887" fill="#8fd396" opacity="1" stroke="#55a55e" stroke-linecap="round" stroke-linejoin="round" stroke-width="5"/>
</g>
</svg>
