<?xml version="1.0" encoding="UTF-8" standalone="no"?> <!-- Created with Vectornator for iOS (http://vectornator.io/) --><!DOCTYPE svg PUBLIC "-//W3C//DTD SVG 1.1//EN" "http://www.w3.org/Graphics/SVG/1.1/DTD/svg11.dtd">
<svg height="100%" style="fill-rule:nonzero;clip-rule:evenodd;stroke-linecap:round;stroke-linejoin:round;" version="1.1" viewBox="0 0 200 200" width="100%" xml:space="preserve" xmlns="http://www.w3.org/2000/svg" xmlns:vectornator="http://vectornator.io" xmlns:xlink="http://www.w3.org/1999/xlink">
<metadata>
<vectornator:setting key="IsTimeLapseWatermarkDisabled" value="false"/>
<vectornator:setting key="UndoHistoryDisabled" value="true"/>
<vectornator:setting key="VNDimensionsVisible" value="true"/>
<vectornator:setting key="VNSnapToGuides" value="true"/>
<vectornator:setting key="WDCMYKEnabledKey" value="false"/>
<vectornator:setting key="WDDisplayWhiteBackground" value="false"/>
<vectornator:setting key="WDDynamicGuides" value="false"/>
<vectornator:setting key="WDGuidesVisible" value="true"/>
<vectornator:setting key="WDIsolateActiveLayer" value="false"/>
<vectornator:setting key="WDOutlineMode" value="false"/>
<vectornator:setting key="WDRulersVisible" value="true"/>
<vectornator:setting key="WDSnapToEdges" value="false"/>
<vectornator:setting key="WDSnapToGrid" value="false"/>
<vectornator:setting key="WDSnapToPoints" value="false"/>
<vectornator:setting key="WDUnits" value="Points"/>
</metadata>
<defs/>
<g id="Layer 1" vectornator:layerName="Layer 1">
<g opacity="1">
<path d="M108.443 103.678C108.443 103.678 137.222 75.5319 144.242 78.0062C151.263 80.4804 145.476 107.157 136.526 113.574C127.576 119.992 108.443 103.678 108.443 103.678Z" fill="#e9eef2" opacity="1" stroke="#b8bcbf" stroke-linecap="round" stroke-linejoin="round" stroke-width="5"/>
<path d="M91.5571 103.678C91.5571 103.678 62.7784 75.5319 55.7577 78.0062C48.737 80.4804 54.5244 107.157 63.4742 113.574C72.424 119.992 91.5571 103.678 91.5571 103.678Z" fill="#e9eef2" opacity="1" stroke="#b8bcbf" stroke-linecap="round" stroke-linejoin="round" stroke-width="5"/>
<path d="M85.5051 107.653C85.5051 99.6477 91.9947 93.1581 100 93.1581C108.005 93.1581 114.495 99.6477 114.495 107.653C114.495 115.658 108.005 122.148 100 122.148C91.9947 122.148 85.5051 115.658 85.5051 107.653Z" fill="#f3a4aa" opacity="1" stroke="#d38289" stroke-linecap="round" stroke-linejoin="round" stroke-width="5"/>
</g>
</g>
</svg>
