<?xml version="1.0" encoding="UTF-8" standalone="no"?> <!-- Created with Vectornator for iOS (http://vectornator.io/) --><!DOCTYPE svg PUBLIC "-//W3C//DTD SVG 1.1//EN" "http://www.w3.org/Graphics/SVG/1.1/DTD/svg11.dtd">
<svg height="100%" style="fill-rule:nonzero;clip-rule:evenodd;stroke-linecap:round;stroke-linejoin:round;" version="1.1" viewBox="0 0 200 200" width="100%" xml:space="preserve" xmlns="http://www.w3.org/2000/svg" xmlns:vectornator="http://vectornator.io" xmlns:xlink="http://www.w3.org/1999/xlink">
<metadata>
<vectornator:setting key="IsTimeLapseWatermarkDisabled" value="false"/>
<vectornator:setting key="UndoHistoryDisabled" value="true"/>
<vectornator:setting key="VNDimensionsVisible" value="true"/>
<vectornator:setting key="VNSnapToGuides" value="true"/>
<vectornator:setting key="WDCMYKEnabledKey" value="false"/>
<vectornator:setting key="WDDisplayWhiteBackground" value="false"/>
<vectornator:setting key="WDDynamicGuides" value="false"/>
<vectornator:setting key="WDGuidesVisible" value="true"/>
<vectornator:setting key="WDIsolateActiveLayer" value="false"/>
<vectornator:setting key="WDOutlineMode" value="false"/>
<vectornator:setting key="WDRulersVisible" value="true"/>
<vectornator:setting key="WDSnapToEdges" value="false"/>
<vectornator:setting key="WDSnapToGrid" value="false"/>
<vectornator:setting key="WDSnapToPoints" value="false"/>
<vectornator:setting key="WDUnits" value="Points"/>
</metadata>
<defs/>
<g id="Layer 1" vectornator:layerName="Layer 1">
<g opacity="1">
<path d="M83.905 71.5516C79.5581 123.41 84.7744 167.604 84.7744 167.604L94.3376 169.724C94.3376 169.724 90.5123 130.912 92.7727 71.3885C92.9338 67.1481 84.5465 63.8984 83.905 71.5516Z" fill="#8fd397" opacity="1" stroke="#55a55e" stroke-linecap="round" stroke-linejoin="round" stroke-width="5"/>
<path d="M81.1181 108.502C81.1181 108.502 81.9908 93.5821 74.3401 87.4508C66.6895 81.3194 51.2563 82.4866 50.5156 83.9765C49.775 85.4664 50.3874 102.166 58.038 108.297C65.6887 114.429 81.1181 108.502 81.1181 108.502Z" fill="#8fd397" opacity="1" stroke="#55a55e" stroke-linecap="round" stroke-linejoin="round" stroke-width="5"/>
<path d="M105.915 75.2433C94.4951 126.147 93.6096 170.604 93.6096 170.604L102.803 173.859C102.803 173.859 104.33 134.908 114.732 76.1509C115.473 71.965 107.601 67.731 105.915 75.2433Z" fill="#8fd397" opacity="1" stroke="#55a55e" stroke-linecap="round" stroke-linejoin="round" stroke-width="5"/>
<path d="M107.479 127.171C107.479 127.171 112.158 112.888 121.597 109.614C131.036 106.341 145.088 112.44 145.234 114.078C145.379 115.716 138.65 131.188 129.211 134.461C119.773 137.734 107.479 127.171 107.479 127.171Z" fill="#8fd397" opacity="1" stroke="#55a55e" stroke-linecap="round" stroke-linejoin="round" stroke-width="5"/>
</g>
<path d="M61.526 84.4526C39.688 73.8113 60.9694 56.1347 60.9694 56.1347C60.9694 56.1347 33.4714 58.825 35.3339 39.9605C37.1964 21.0959 64.394 31.3487 64.394 31.3487C64.394 31.3487 54.6583 6.06183 72.6082 4.24338C90.5581 2.42493 91.1249 27.239 91.1249 27.239C91.1249 27.239 112.561 10.0285 121.837 26.6612C131.114 43.2939 104.221 49.485 104.221 49.485C104.221 49.485 129.073 62.3504 114.988 76.2332C100.902 90.1161 85.5838 67.3436 85.5838 67.3436C85.5838 67.3436 83.364 95.094 61.526 84.4526Z" fill="#f2a4aa" opacity="1" stroke="#d28288" stroke-linecap="round" stroke-linejoin="round" stroke-width="5"/>
<path d="M83.0444 77.3895C68.737 58.6099 96.2551 51.9206 96.2551 51.9206C96.2551 51.9206 70.4517 42.6099 81.2422 26.5942C92.0326 10.5786 111.304 31.2939 111.304 31.2939C111.304 31.2939 114.868 4.61763 131.742 10.6399C148.616 16.6622 137.111 39.0133 137.111 39.0133C137.111 39.0133 164.54 32.8051 164.755 51.5748C164.97 70.3445 138.012 64.4109 138.012 64.4109C138.012 64.4109 153.928 86.4555 134.658 92.8283C115.388 99.201 112.762 72.3881 112.762 72.3881C112.762 72.3881 97.3518 96.1691 83.0444 77.3895Z" fill="#f2a4aa" opacity="1" stroke="#d28288" stroke-linecap="round" stroke-linejoin="round" stroke-width="5"/>
<path d="M44.5974 193.647C34.1072 190.762 54.4118 174.645 60.8805 170.544C67.3492 166.442 66.7255 177.341 70.4722 177.242C74.2189 177.142 97.937 150.065 109.757 159.322C118.59 166.239 118.316 174.611 121.826 176.332C125.335 178.052 142.451 175.706 145.27 180.33C148.088 184.953 156.752 192.377 149.429 194.379C142.105 196.381 55.0877 196.532 44.5974 193.647Z" fill="#c29f83" opacity="1" stroke="#876c58" stroke-linecap="round" stroke-linejoin="round" stroke-width="5"/>
</g>
</svg>
